<svg xmlns="http://www.w3.org/2000/svg" viewBox="0 0 600 600" role="img" aria-label="Curve tee, graphite, back">
  <rect width="600" height="600" fill="#EDE9E0"/>
  <!-- flat-lay tee, graphite, back view -->
  <g>
    <path d="M170 150
             C170 120 210 110 300 110
             C390 110 430 120 430 150
             L470 200 L430 250 L410 230 L410 500
             C410 510 400 515 390 515 L210 515
             C200 515 190 510 190 500 L190 230 L170 250 L130 200 Z"
          fill="#23262A" stroke="#15171A" stroke-width="3"/>
    <!-- collar (back) -->
    <path d="M255 118 C270 138 330 138 345 118" fill="none" stroke="#15171A" stroke-width="4"/>
    <!-- the anneal curve back print, simplified, in bone ink -->
    <g stroke="#F4F1EA" fill="none">
      <line x1="245" y1="380" x2="370" y2="380" stroke-width="3"/>
      <line x1="245" y1="380" x2="245" y2="270" stroke-width="3"/>
      <path d="M245 372 L280 290 L330 290 L370 350" stroke-width="5" stroke-linecap="round" stroke-linejoin="round"/>
    </g>
    <text x="307" y="425" text-anchor="middle" fill="#F4F1EA"
          font-family="'IBM Plex Mono',ui-monospace,monospace" font-size="14" letter-spacing="5">ANNEAL</text>
  </g>
</svg>
