<svg xmlns="http://www.w3.org/2000/svg" viewBox="0 0 600 600" role="img" aria-label="Heavyweight tee, bone, front">
  <rect width="600" height="600" fill="#E7E2D6"/>
  <g>
    <path d="M170 150
             C170 120 210 110 300 110
             C390 110 430 120 430 150
             L470 200 L430 250 L410 230 L410 500
             C410 510 400 515 390 515 L210 515
             C200 515 190 510 190 500 L190 230 L170 250 L130 200 Z"
          fill="#F4F1EA" stroke="#D8D2C4" stroke-width="3"/>
    <!-- collar (front) -->
    <path d="M258 116 C275 150 325 150 342 116" fill="none" stroke="#D8D2C4" stroke-width="4"/>
    <!-- left-chest mark in graphite -->
    <text x="250" y="225" text-anchor="middle" fill="#1A1A1A"
          font-family="'Inter','Helvetica Neue',Arial,sans-serif" font-weight="600" font-size="20" letter-spacing="5">ANNEAL</text>
    <path d="M285 235 L295 222 L312 222 L326 233" fill="none" stroke="#E2552B" stroke-width="2.5"
          stroke-linecap="round" stroke-linejoin="round"/>
  </g>
</svg>
